<mxfile host="app.diagrams.net" agent="Mozilla/5.0 (Macintosh; Intel Mac OS X 10_15_7) AppleWebKit/537.36 (KHTML, like Gecko) Chrome/126.0.0.0 Safari/537.36" version="24.7.5">
  <diagram name="第 1 页" id="BMrDkvSOO9xfYoNDWTR9">
    <mxGraphModel dx="1242" dy="739" grid="1" gridSize="10" guides="1" tooltips="1" connect="1" arrows="1" fold="1" page="1" pageScale="1" pageWidth="827" pageHeight="1169" math="0" shadow="0">
      <root>
        <mxCell id="0" />
        <mxCell id="1" parent="0" />
        <mxCell id="P2AgG_3e24iThaE6c2Qp-1" value="&lt;font style=&quot;font-size: 18px;&quot;&gt;源站&lt;/font&gt;" style="rounded=0;whiteSpace=wrap;html=1;" vertex="1" parent="1">
          <mxGeometry x="290" y="150" width="220" height="70" as="geometry" />
        </mxCell>
        <mxCell id="P2AgG_3e24iThaE6c2Qp-2" value="&lt;font style=&quot;font-size: 18px;&quot;&gt;CDN&lt;/font&gt;" style="rounded=0;whiteSpace=wrap;html=1;" vertex="1" parent="1">
          <mxGeometry x="80" y="390" width="240" height="70" as="geometry" />
        </mxCell>
        <mxCell id="P2AgG_3e24iThaE6c2Qp-3" value="FLS -&amp;gt; P2P" style="rounded=1;whiteSpace=wrap;html=1;" vertex="1" parent="1">
          <mxGeometry x="230" y="405" width="86" height="40" as="geometry" />
        </mxCell>
        <mxCell id="P2AgG_3e24iThaE6c2Qp-5" value="" style="endArrow=classic;html=1;rounded=0;entryX=0.571;entryY=-0.036;entryDx=0;entryDy=0;entryPerimeter=0;exitX=0.445;exitY=1.05;exitDx=0;exitDy=0;exitPerimeter=0;" edge="1" parent="1" source="P2AgG_3e24iThaE6c2Qp-1" target="P2AgG_3e24iThaE6c2Qp-2">
          <mxGeometry relative="1" as="geometry">
            <mxPoint x="370" y="260" as="sourcePoint" />
            <mxPoint x="460" y="380" as="targetPoint" />
            <Array as="points" />
          </mxGeometry>
        </mxCell>
        <mxCell id="P2AgG_3e24iThaE6c2Qp-6" value="&lt;font style=&quot;font-size: 18px;&quot;&gt;FLS&lt;/font&gt;" style="edgeLabel;resizable=0;html=1;;align=center;verticalAlign=middle;" connectable="0" vertex="1" parent="P2AgG_3e24iThaE6c2Qp-5">
          <mxGeometry relative="1" as="geometry" />
        </mxCell>
        <mxCell id="P2AgG_3e24iThaE6c2Qp-7" value="&lt;font style=&quot;font-size: 18px;&quot;&gt;观众&lt;/font&gt;" style="shape=umlActor;verticalLabelPosition=bottom;verticalAlign=top;html=1;outlineConnect=0;" vertex="1" parent="1">
          <mxGeometry x="80" y="570" width="30" height="60" as="geometry" />
        </mxCell>
        <mxCell id="P2AgG_3e24iThaE6c2Qp-8" value="&lt;font style=&quot;font-size: 18px;&quot;&gt;观众&lt;/font&gt;" style="shape=umlActor;verticalLabelPosition=bottom;verticalAlign=top;html=1;outlineConnect=0;" vertex="1" parent="1">
          <mxGeometry x="190" y="570" width="30" height="60" as="geometry" />
        </mxCell>
        <mxCell id="P2AgG_3e24iThaE6c2Qp-12" value="&lt;font style=&quot;font-size: 18px;&quot;&gt;观众&lt;/font&gt;" style="shape=umlActor;verticalLabelPosition=bottom;verticalAlign=top;html=1;outlineConnect=0;" vertex="1" parent="1">
          <mxGeometry x="300" y="570" width="30" height="60" as="geometry" />
        </mxCell>
        <mxCell id="P2AgG_3e24iThaE6c2Qp-14" value="&lt;font style=&quot;font-size: 18px;&quot;&gt;P2P&lt;/font&gt;" style="endArrow=classic;html=1;rounded=0;" edge="1" parent="1">
          <mxGeometry width="50" height="50" relative="1" as="geometry">
            <mxPoint x="160" y="470" as="sourcePoint" />
            <mxPoint x="100" y="560" as="targetPoint" />
          </mxGeometry>
        </mxCell>
        <mxCell id="P2AgG_3e24iThaE6c2Qp-15" value="&lt;font style=&quot;font-size: 18px;&quot;&gt;P2P&lt;/font&gt;" style="endArrow=classic;html=1;rounded=0;" edge="1" parent="1">
          <mxGeometry width="50" height="50" relative="1" as="geometry">
            <mxPoint x="200" y="470" as="sourcePoint" />
            <mxPoint x="200" y="560" as="targetPoint" />
          </mxGeometry>
        </mxCell>
      </root>
    </mxGraphModel>
  </diagram>
</mxfile>
